<?xml version="1.0" encoding="UTF-8"?>
<svg width="24" height="24" viewBox="0 0 24 24" fill="none" xmlns="http://www.w3.org/2000/svg">
  <path d="M17.5 14.5C17.5 11.4624 14.5376 9 10.75 9C6.96243 9 4 11.4624 4 14.5C4 17.5376 6.96243 20 10.75 20C11.7836 20 12.7581 19.8019 13.6287 19.4471L15.5 20L14.9728 18.3619C16.4786 17.3281 17.5 15.9952 17.5 14.5Z" stroke="currentColor" stroke-width="2" stroke-linecap="round" stroke-linejoin="round"/>
  <path d="M14.75 7.5L15.5 4L13 5.5C12.3369 5.32567 11.6246 5.23116 10.8772 5.23116C7.79613 5.23116 5.32129 7.18849 5.32129 9.61558C5.32129 10.7914 5.9646 11.8468 7 12.6123" stroke="currentColor" stroke-width="2" stroke-linecap="round" stroke-linejoin="round"/>
</svg>
